# Blender v2.92.0 OBJ File: ''
# www.blender.org
mtllib shelfandtable.mtl
o Cube_Cube.001
v -0.154845 0.000477 0.499486
v -0.154845 -0.042814 0.499486
v -0.154845 0.000477 -0.499486
v -0.154845 -0.042814 -0.499486
v 1.047627 0.000477 0.499486
v 1.047627 -0.042814 0.499486
v 1.047627 0.000477 -0.499486
v 1.047627 -0.042814 -0.499486
v -0.154845 -0.850001 -0.437488
v -0.154845 -0.019202 -0.437488
v -0.154845 -0.850001 -0.499486
v -0.154845 -0.019202 -0.499486
v -0.092847 -0.850001 -0.437488
v -0.092847 -0.019202 -0.437488
v -0.092847 -0.850001 -0.499486
v -0.092847 -0.019202 -0.499486
v -0.154845 -0.850001 0.499486
v -0.154845 -0.019202 0.499486
v -0.154845 -0.850001 0.437488
v -0.154845 -0.019202 0.437488
v -0.092847 -0.850001 0.499486
v -0.092847 -0.019202 0.499486
v -0.092847 -0.850001 0.437488
v -0.092847 -0.019202 0.437488
v 0.985629 -0.850001 0.499486
v 0.985629 -0.019202 0.499486
v 0.985629 -0.850001 0.437488
v 0.985629 -0.019202 0.437488
v 1.047627 -0.850001 0.499486
v 1.047627 -0.019202 0.499486
v 1.047627 -0.850001 0.437488
v 1.047627 -0.019202 0.437488
v 0.985629 -0.850001 -0.437488
v 0.985629 -0.019202 -0.437488
v 0.985629 -0.850001 -0.499486
v 0.985629 -0.019202 -0.499486
v 1.047627 -0.850001 -0.437488
v 1.047627 -0.019202 -0.437488
v 1.047627 -0.850001 -0.499486
v 1.047627 -0.019202 -0.499486
vt 0.375000 0.000000
vt 0.375000 0.250000
vt 0.625000 0.250000
vt 0.625000 0.000000
vt 0.375000 0.500000
vt 0.625000 0.500000
vt 0.375000 0.750000
vt 0.625000 0.750000
vt 0.375000 1.000000
vt 0.625000 1.000000
vt 0.125000 0.500000
vt 0.125000 0.750000
vt 0.875000 0.750000
vt 0.875000 0.500000
vt 0.375000 0.000000
vt 0.375000 0.250000
vt 0.625000 0.250000
vt 0.625000 0.000000
vt 0.375000 0.500000
vt 0.625000 0.500000
vt 0.375000 0.750000
vt 0.625000 0.750000
vt 0.375000 1.000000
vt 0.625000 1.000000
vt 0.125000 0.500000
vt 0.125000 0.750000
vt 0.875000 0.750000
vt 0.875000 0.500000
vt 0.375000 0.000000
vt 0.375000 0.250000
vt 0.625000 0.250000
vt 0.625000 0.000000
vt 0.375000 0.500000
vt 0.625000 0.500000
vt 0.375000 0.750000
vt 0.625000 0.750000
vt 0.375000 1.000000
vt 0.625000 1.000000
vt 0.125000 0.500000
vt 0.125000 0.750000
vt 0.875000 0.750000
vt 0.875000 0.500000
vt 0.375000 0.000000
vt 0.375000 0.250000
vt 0.625000 0.250000
vt 0.625000 0.000000
vt 0.375000 0.500000
vt 0.625000 0.500000
vt 0.375000 0.750000
vt 0.625000 0.750000
vt 0.375000 1.000000
vt 0.625000 1.000000
vt 0.125000 0.500000
vt 0.125000 0.750000
vt 0.875000 0.750000
vt 0.875000 0.500000
vt 0.375000 0.000000
vt 0.375000 0.250000
vt 0.625000 0.250000
vt 0.625000 0.000000
vt 0.375000 0.500000
vt 0.625000 0.500000
vt 0.375000 0.750000
vt 0.625000 0.750000
vt 0.375000 1.000000
vt 0.625000 1.000000
vt 0.125000 0.500000
vt 0.125000 0.750000
vt 0.875000 0.750000
vt 0.875000 0.500000
vn -1.0000 0.0000 0.0000
vn 0.0000 0.0000 -1.0000
vn 1.0000 0.0000 0.0000
vn 0.0000 0.0000 1.0000
vn 0.0000 1.0000 0.0000
vn 0.0000 -1.0000 0.0000
usemtl None
s off
f 1/1/1 3/2/1 4/3/1 2/4/1
f 3/2/2 7/5/2 8/6/2 4/3/2
f 7/5/3 5/7/3 6/8/3 8/6/3
f 5/7/4 1/9/4 2/10/4 6/8/4
f 3/11/5 1/12/5 5/7/5 7/5/5
f 8/6/6 6/8/6 2/13/6 4/14/6
f 9/15/3 11/16/3 12/17/3 10/18/3
f 11/16/4 15/19/4 16/20/4 12/17/4
f 15/19/1 13/21/1 14/22/1 16/20/1
f 13/21/2 9/23/2 10/24/2 14/22/2
f 11/25/5 9/26/5 13/21/5 15/19/5
f 16/20/6 14/22/6 10/27/6 12/28/6
f 17/29/3 19/30/3 20/31/3 18/32/3
f 19/30/4 23/33/4 24/34/4 20/31/4
f 23/33/1 21/35/1 22/36/1 24/34/1
f 21/35/2 17/37/2 18/38/2 22/36/2
f 19/39/5 17/40/5 21/35/5 23/33/5
f 24/34/6 22/36/6 18/41/6 20/42/6
f 25/43/3 27/44/3 28/45/3 26/46/3
f 27/44/4 31/47/4 32/48/4 28/45/4
f 31/47/1 29/49/1 30/50/1 32/48/1
f 29/49/2 25/51/2 26/52/2 30/50/2
f 27/53/5 25/54/5 29/49/5 31/47/5
f 32/48/6 30/50/6 26/55/6 28/56/6
f 33/57/3 35/58/3 36/59/3 34/60/3
f 35/58/4 39/61/4 40/62/4 36/59/4
f 39/61/1 37/63/1 38/64/1 40/62/1
f 37/63/2 33/65/2 34/66/2 38/64/2
f 35/67/5 33/68/5 37/63/5 39/61/5
f 40/62/6 38/64/6 34/69/6 36/70/6
